<svg id="Icons" height="512" viewBox="0 0 60 60" width="512" xmlns="http://www.w3.org/2000/svg"><path d="m31.4 58.65 21.984-11.585a3.046 3.046 0 0 0 1.616-2.697v-28.74a3.045 3.045 0 0 0 -1.616-2.7l-21.984-11.582a3 3 0 0 0 -2.8 0l-21.984 11.585a3.045 3.045 0 0 0 -1.616 2.697v28.74a3.046 3.046 0 0 0 1.616 2.7l21.984 11.582a3 3 0 0 0 2.8 0z" fill="#f29c1f"/><path d="m10 42.12v-24.24a2 2 0 0 1 1.058-1.764l18-9.613a2 2 0 0 1 1.884 0l18 9.613a2 2 0 0 1 1.058 1.764v24.24a2 2 0 0 1 -1.058 1.764l-18 9.613a2 2 0 0 1 -1.884 0l-18-9.613a2 2 0 0 1 -1.058-1.764z" fill="#e57e25"/><path d="m14 39.722v-19.444a2 2 0 0 1 1.058-1.764l14-7.477a2 2 0 0 1 1.884 0l14 7.477a2 2 0 0 1 1.058 1.764v19.444a2 2 0 0 1 -1.058 1.764l-14 7.477a2 2 0 0 1 -1.884 0l-14-7.477a2 2 0 0 1 -1.058-1.764z" fill="#f0c419"/><path d="m18 27a1 1 0 0 1 -1-1 8.837 8.837 0 0 1 5.628-7.929 1 1 0 1 1 .744 1.858 6.846 6.846 0 0 0 -4.372 6.071 1 1 0 0 1 -1 1z" fill="#f3d55b"/></svg>