<svg id="Layer_3" height="512" viewBox="0 0 64 64" width="512" xmlns="http://www.w3.org/2000/svg" data-name="Layer 3"><rect fill="#939393" height="60" rx="4" width="46" x="9" y="2"/><path d="m51 2h-38a4 4 0 0 0 -4 4v52h40a2 2 0 0 0 2-2z" fill="#b5b5b5"/><circle cx="32" cy="46" fill="#686868" r="11"/><path d="m25 43h4v6h-4z" fill="#474747"/><path d="m35 43h4v6h-4z" fill="#474747"/><circle cx="32" cy="18" fill="#686868" r="11"/><g fill="#474747"><path d="m25 15h4v6h-4z"/><path d="m35 15h4v6h-4z"/><circle cx="15" cy="8" r="2"/><circle cx="49" cy="8" r="2"/><circle cx="15" cy="56" r="2"/><circle cx="49" cy="56" r="2"/></g><path d="m51 1h-38a5.006 5.006 0 0 0 -5 5v52a5.006 5.006 0 0 0 5 5h38a5.006 5.006 0 0 0 5-5v-52a5.006 5.006 0 0 0 -5-5zm3 57a3 3 0 0 1 -3 3h-38a3 3 0 0 1 -3-3v-52a3 3 0 0 1 3-3h38a3 3 0 0 1 3 3z"/><path d="m32 6a12 12 0 1 0 12 12 12.013 12.013 0 0 0 -12-12zm0 22a10 10 0 1 1 10-10 10.011 10.011 0 0 1 -10 10z"/><path d="m32 34a12 12 0 1 0 12 12 12.013 12.013 0 0 0 -12-12zm0 22a10 10 0 1 1 10-10 10.011 10.011 0 0 1 -10 10z"/><path d="m29 14h-4a1 1 0 0 0 -1 1v6a1 1 0 0 0 1 1h4a1 1 0 0 0 1-1v-6a1 1 0 0 0 -1-1zm-1 6h-2v-4h2z"/><path d="m35 14a1 1 0 0 0 -1 1v6a1 1 0 0 0 1 1h4a1 1 0 0 0 1-1v-6a1 1 0 0 0 -1-1zm3 6h-2v-4h2z"/><path d="m29 42h-4a1 1 0 0 0 -1 1v6a1 1 0 0 0 1 1h4a1 1 0 0 0 1-1v-6a1 1 0 0 0 -1-1zm-1 6h-2v-4h2z"/><path d="m35 42a1 1 0 0 0 -1 1v6a1 1 0 0 0 1 1h4a1 1 0 0 0 1-1v-6a1 1 0 0 0 -1-1zm3 6h-2v-4h2z"/><path d="m15 5a3 3 0 1 0 3 3 3 3 0 0 0 -3-3zm0 4a1 1 0 1 1 1-1 1 1 0 0 1 -1 1z"/><path d="m49 5a3 3 0 1 0 3 3 3 3 0 0 0 -3-3zm0 4a1 1 0 1 1 1-1 1 1 0 0 1 -1 1z"/><path d="m15 53a3 3 0 1 0 3 3 3 3 0 0 0 -3-3zm0 4a1 1 0 1 1 1-1 1 1 0 0 1 -1 1z"/><path d="m49 53a3 3 0 1 0 3 3 3 3 0 0 0 -3-3zm0 4a1 1 0 1 1 1-1 1 1 0 0 1 -1 1z"/></svg>