<svg id="Layer_1" enable-background="new 0 0 500 500" viewBox="0 0 500 500" xmlns="http://www.w3.org/2000/svg"><g><path d="m217.578 57.777v392.179c0 18.939 2.674-5.796 8.022 4.901 5.348 10.695 11.365-.369 14.707 2.489s10.027-4.322 14.706 2.277c4.679 6.598 6.685.582 10.696 5.93s11.364 4.011 13.37 2.006c2.005-2.006 3.343 20.723 3.343-4.679 0-25.403 0-390.395 0-421.145 0-30.751-15.375 0-15.375 0s-4.679-19.312-6.016-13.667.668 15.003-5.348 8.987-4.011-20.054-6.016-6.016-7.353 7.354-6.685 9.359 2.674-4.679 2.005 4.679c-.668 9.359-14.038-4.679-14.038-4.679s-13.371-26.741-13.371 17.379z" fill="#ffe0ae"/><g fill="#fff" opacity=".2"><path d="m242.981 40.396c.266.799.742.232 1.179-.164-.877-.159-1.419-.556-1.179.164z"/><path d="m244.16 40.232c.231.041.482.059.752.042-.179-.423-.449-.317-.752-.042z"/><path d="m267.046 41.732s-4.679-19.312-6.016-13.666c-1.336 5.644.669 15.003-5.347 8.987s-4.011-20.054-6.016-6.016c-1.097 7.676-3.189 9.145-4.755 9.238.21.5.292 1.754.075 4.8-.668 9.359-14.038-4.679-14.038-4.679s-1.87-3.735-4.209-6.11c8.117 127.182 33.131 243.496 55.682 326.948 0-118.126 0-298.294 0-319.501 0-30.751-15.376-.001-15.376-.001z"/></g></g></svg>